<?xml version="1.0" encoding="UTF-8" standalone="no"?>
<svg
   width="16"
   height="16"
   fill="currentColor"
   class="bi bi-eraser"
   viewBox="0 0 16 16"
   version="1.1"
   id="svg4"
   sodipodi:docname="eraser.svg"
   inkscape:version="1.2.2 (732a01da63, 2022-12-09)"
   xmlns:inkscape="http://www.inkscape.org/namespaces/inkscape"
   xmlns:sodipodi="http://sodipodi.sourceforge.net/DTD/sodipodi-0.dtd"
   xmlns="http://www.w3.org/2000/svg"
   xmlns:svg="http://www.w3.org/2000/svg">
  <defs
     id="defs8" />
  <sodipodi:namedview
     id="namedview6"
     pagecolor="#ffffff"
     bordercolor="#000000"
     borderopacity="0.25"
     inkscape:showpageshadow="2"
     inkscape:pageopacity="0.0"
     inkscape:pagecheckerboard="0"
     inkscape:deskcolor="#d1d1d1"
     showgrid="false"
     inkscape:zoom="48.5"
     inkscape:cx="8"
     inkscape:cy="8"
     inkscape:window-width="1920"
     inkscape:window-height="974"
     inkscape:window-x="-11"
     inkscape:window-y="-11"
     inkscape:window-maximized="1"
     inkscape:current-layer="svg4" />
  <path
     d="M8.086 2.207a2 2 0 0 1 2.828 0l3.879 3.879a2 2 0 0 1 0 2.828l-5.5 5.5A2 2 0 0 1 7.879 15H5.12a2 2 0 0 1-1.414-.586l-2.5-2.5a2 2 0 0 1 0-2.828zm2.121.707a1 1 0 0 0-1.414 0L4.16 7.547l5.293 5.293 4.633-4.633a1 1 0 0 0 0-1.414zM8.746 13.547 3.453 8.254 1.914 9.793a1 1 0 0 0 0 1.414l2.5 2.5a1 1 0 0 0 .707.293H7.88a1 1 0 0 0 .707-.293z"
     id="path2"
     style="fill:#ffffff" />
</svg>
